<svg width="20" height="20" viewBox="0 0 20 20" fill="none" xmlns="http://www.w3.org/2000/svg">
<g clip-path="url(#clip0_485_1067)">
<path fill-rule="evenodd" clip-rule="evenodd" d="M14.0361 5.45655C13.0035 4.4718 11.6256 3.93533 10.1999 3.95738C7.5911 3.95738 5.37541 5.71742 4.5854 8.08742C4.16651 9.32938 4.16651 10.6743 4.5854 11.9162H4.58906C5.38274 14.2826 7.59476 16.0426 10.2036 16.0426C11.5503 16.0426 12.7064 15.6982 13.6025 15.0898V15.0873C14.6571 14.3892 15.3773 13.2905 15.6014 12.0485H10.2V8.19772H19.6323C19.7498 8.86647 19.805 9.54992 19.805 10.2297C19.805 13.2712 18.718 15.8427 16.8267 17.5844L16.8286 17.5859C15.1715 19.1145 12.897 20 10.1999 20C6.41894 20 2.96129 17.8688 1.26369 14.492C-0.154633 11.6664 -0.154629 8.33733 1.2637 5.51169C2.9613 2.1312 6.41894 2.50159e-06 10.1999 2.50159e-06C12.6839 -0.0293931 15.0833 0.903916 16.8911 2.60151L14.0361 5.45655Z" fill="white"/>
</g>
<defs>
<clipPath id="clip0_485_1067">
<rect width="20" height="20" fill="white"/>
</clipPath>
</defs>
</svg>
